<svg xmlns="http://www.w3.org/2000/svg" viewBox="0 0 256 256">
  <circle cx="128" cy="128" r="120" fill="#00D8FF" />
  <path
    d="M128 90.8c12.6 0 22.9 10.2 22.9 22.9s-10.3 22.9-22.9 22.9-22.9-10.3-22.9-22.9S115.4 90.8 128 90.8Zm-70.8 6c2.8-.9 5.8-1.9 8.8-2.8 3.2 10.4 7.4 21.3 12.5 32.3-5.1 11.2-9.4 22.2-12.6 32.8-12.5-4.2-22.8-9.8-29.8-15.9-6.3-5.4-9.6-10.8-9.6-15.2 0-9.3 13.9-21.2 37.1-29.3Zm22.3-42.3c-4.8-24.6-1.6-43.1 6.4-47.8 8.6-5 27.5 2.1 47.5 19.8 7.2 7.9 14.5 17.1 21.8 26.9-12 1.1-23.6 2.9-34.2 5.3-7.2 9.9-14.5 19.2-21.8 27.1-9.9 8.7-19.9 14.8-28.6 17.9-7.9 2.8-14.1 2.8-18 0.7-8-4.6-11.4-22.6-6.9-46.7ZM210.5 73.8c23.7 8.2 38.1 20.2 38.1 29.5 0 9.9-15.6 22.7-40.9 31.1-3.2-10.2-7.6-21.2-13-32.4 5.1-11 9.3-21.8 12.5-32.4 2.6.8 5.2 1.6 7.6 2.4Zm-52.2 57.8c-5 6.6-10 12.7-15 18.4-10 8.5-20 14.8-28.4 17.9-7.9 2.8-14.1 2.8-17.9 0.7-8.1-4.7-11.4-22.6-6.9-46.7 9.9 8.7 19.9 14.8 28.6 17.9 7.2 9.9 14.5 19.2 21.8 27.1 5-5.6 10.2-11.8 15.4-18.5Zm-16.9-43.8c5.5 5.5 10.1 11.5 15.1 18.2-5.2.2-10.4.3-15.4.3-5 0-10-.1-15-.3-5-6.6-10-12.6-15-18.2 5-.2 10-.3 15-.3 5.4 0 10.4.1 15.3.3Z"
    fill="#fff"
  />
</svg>
